<?xml version="1.0" encoding="UTF-8"?>
<!-- Generator: Adobe Illustrator 15.0.0, SVG Export Plug-In  -->
<!DOCTYPE svg PUBLIC "-//W3C//DTD SVG 1.1//EN" "http://www.w3.org/Graphics/SVG/1.1/DTD/svg11.dtd" [
	<!ENTITY ns_flows "http://ns.adobe.com/Flows/1.0/">
]>
<svg version="1.1" xmlns="http://www.w3.org/2000/svg" xmlns:xlink="http://www.w3.org/1999/xlink" xmlns:a="http://ns.adobe.com/AdobeSVGViewerExtensions/3.0/" x="0px" y="0px" width="231px" height="80px" viewBox="-6.514 -6.356 231 80" enable-background="new -6.514 -6.356 231 80" xml:space="preserve">
<defs>
</defs>
<path fill="#FFFFFF" d="M75.815,52.112v2.081c-0.573,0.436-1.42,0.733-2.194,0.733c-1.67,0-2.968-1.25-2.968-2.862  c0-1.613,1.314-2.848,3.024-2.848c0.807,0,1.613,0.307,2.169,0.789l-0.54,0.703c-0.436-0.403-1.041-0.646-1.629-0.646  c-1.153,0-2.057,0.878-2.057,2c0,1.129,0.912,2.008,2.065,2.008c0.419,0,0.895-0.145,1.298-0.387v-1.573L75.815,52.112  L75.815,52.112z"/>
<polygon fill="#FFFFFF" points="79.082,50.095 79.082,51.621 81.84,51.621 81.84,52.475 79.082,52.475 79.082,54.033 82.259,54.033   82.259,54.886 78.13,54.886 78.13,49.242 82.163,49.242 82.163,50.095 "/>
<path fill="#FFFFFF" d="M88.22,49.781l-0.395,0.84c-0.613-0.371-1.226-0.524-1.654-0.524c-0.557,0-0.919,0.21-0.919,0.589  c0,1.234,3.049,0.573,3.041,2.605c0,1.008-0.887,1.629-2.129,1.629c-0.887,0-1.726-0.362-2.307-0.896l0.411-0.821  c0.581,0.531,1.307,0.821,1.912,0.821c0.661,0,1.057-0.25,1.057-0.685c0-1.26-3.049-0.557-3.049-2.565  c0-0.968,0.831-1.573,2.057-1.573C86.978,49.201,87.695,49.434,88.22,49.781"/>
<polygon fill="#FFFFFF" points="92.438,50.095 92.438,54.886 91.486,54.886 91.486,50.095 89.704,50.095 89.704,49.242   94.229,49.242 94.229,50.095 "/>
<rect x="96.011" y="49.242" fill="#FFFFFF" width="0.952" height="5.646"/>
<path fill="#FFFFFF" d="M104.932,52.063c0,1.614-1.307,2.863-2.992,2.863c-1.686,0-2.992-1.249-2.992-2.863  c0-1.621,1.306-2.847,2.992-2.847C103.625,49.216,104.932,50.451,104.932,52.063 M99.915,52.063c0,1.122,0.928,2.009,2.032,2.009  c1.105,0,2.009-0.887,2.009-2.009c0-1.12-0.904-1.991-2.009-1.991C100.835,50.072,99.915,50.943,99.915,52.063 M102.181,48.626  h-0.822l0.854-1.192l0.952,0.403L102.181,48.626z"/>
<polygon fill="#FFFFFF" points="110.875,54.886 107.868,50.837 107.868,54.886 106.916,54.886 106.916,49.242 107.852,49.242   110.875,53.296 110.875,49.242 111.812,49.242 111.812,54.886 "/>
<polygon fill="#FFFFFF" points="118.273,50.095 118.273,51.725 120.836,51.725 120.836,52.572 118.273,52.572 118.273,54.886   117.32,54.886 117.32,49.242 121.111,49.242 121.104,50.095 "/>
<rect x="122.926" y="49.242" fill="#FFFFFF" width="0.951" height="5.646"/>
<polygon fill="#FFFFFF" points="130.29,54.886 127.282,50.837 127.282,54.886 126.33,54.886 126.33,49.242 127.266,49.242   130.29,53.296 130.29,49.242 131.226,49.242 131.226,54.886 "/>
<path fill="#FFFFFF" d="M134.485,53.612l-0.541,1.274h-0.991l2.492-5.646h0.976l2.469,5.646h-1.016l-0.541-1.274H134.485z   M135.904,50.255l-1.065,2.51h2.131L135.904,50.255z"/>
<polygon fill="#FFFFFF" points="144.567,54.886 141.557,50.837 141.557,54.886 140.607,54.886 140.607,49.242 141.542,49.242   144.567,53.296 144.567,49.242 145.502,49.242 145.502,54.886 "/>
<path fill="#FFFFFF" d="M152.608,50.087l-0.557,0.692c-0.412-0.442-1-0.717-1.572-0.717c-1.129,0-2.018,0.87-2.018,1.983  s0.889,1.992,2.018,1.992c0.564,0,1.146-0.258,1.572-0.67l0.564,0.629c-0.572,0.564-1.388,0.928-2.188,0.928  c-1.652,0-2.936-1.249-2.936-2.87c0-1.604,1.299-2.841,2.969-2.841C151.26,49.216,152.06,49.546,152.608,50.087"/>
<rect x="154.551" y="49.242" fill="#FFFFFF" width="0.951" height="5.646"/>
<polygon fill="#FFFFFF" points="158.907,50.095 158.907,51.621 161.665,51.621 161.665,52.475 158.907,52.475 158.907,54.033   162.084,54.033 162.084,54.886 157.955,54.886 157.955,49.242 161.988,49.242 161.988,50.095 "/>
<path fill="#FFFFFF" d="M166.762,53.177c-0.08,0.008-0.168,0.008-0.258,0.008h-1.338v1.701h-0.953V49.24h2.291  c1.444,0,2.274,0.702,2.274,1.928c0,0.903-0.42,1.541-1.17,1.832l1.269,1.887h-1.08L166.762,53.177z M166.504,52.33  c0.871,0,1.373-0.369,1.373-1.137c0-0.742-0.5-1.098-1.373-1.098h-1.338v2.234H166.504L166.504,52.33z"/>
<path fill="#FFFFFF" d="M171.812,53.612l-0.541,1.274h-0.992l2.492-5.646h0.978l2.469,5.646h-1.019l-0.539-1.274H171.812z   M173.232,50.255l-1.063,2.51h2.129L173.232,50.255z"/>
<path fill="#FFFFFF" d="M186.5,52.064c0,1.613-1.308,2.862-2.992,2.862c-1.686,0-2.992-1.249-2.992-2.862  c0-1.621,1.307-2.848,2.992-2.848C185.193,49.216,186.5,50.451,186.5,52.064 M181.482,52.064c0,1.121,0.928,2.008,2.032,2.008  c1.105,0,2.009-0.887,2.009-2.008c0-1.122-0.902-1.993-2.009-1.993C182.402,50.071,181.482,50.942,181.482,52.064"/>
<polygon fill="#FFFFFF" points="192.445,54.886 189.435,50.837 189.435,54.886 188.484,54.886 188.484,49.242 189.42,49.242   192.445,53.296 192.445,49.242 193.381,49.242 193.381,54.886 "/>
<polygon fill="#FFFFFF" points="202.285,54.024 202.285,54.886 198.887,54.886 198.887,49.242 199.84,49.242 199.84,54.024 "/>
<rect x="204.165" y="49.242" fill="#FFFFFF" width="0.95" height="5.646"/>
<polygon fill="#FFFFFF" points="211.527,54.886 208.519,50.837 208.519,54.886 207.566,54.886 207.566,49.242 208.504,49.242   211.527,53.296 211.527,49.242 212.463,49.242 212.463,54.886 "/>
<polygon fill="#FFFFFF" points="215.875,50.095 215.875,51.621 218.631,51.621 218.631,52.475 215.875,52.475 215.875,54.033   219.051,54.033 219.051,54.886 214.924,54.886 214.924,49.242 218.955,49.242 218.955,50.095 "/>
<path fill="#FFFFFF" d="M80.011,40.83c-1.394,0-2.657-0.24-3.755-0.718c-1.098-0.476-2.04-1.127-2.798-1.934  c-0.759-0.808-1.348-1.765-1.751-2.849c-0.405-1.082-0.61-2.241-0.61-3.439c0-1.327,0.246-2.57,0.73-3.693  c0.486-1.125,1.154-2.109,1.986-2.925c0.833-0.816,1.816-1.46,2.924-1.913c1.108-0.453,2.31-0.683,3.572-0.683  c0.487,0,0.984,0.037,1.477,0.11c0.492,0.073,0.967,0.167,1.41,0.282c0.437,0.113,0.824,0.243,1.153,0.387  c0.247,0.109,0.439,0.221,0.575,0.335c-0.114,0.181-0.206,0.333-0.274,0.457c-0.083,0.147-0.169,0.3-0.259,0.457  c-0.092,0.159-0.192,0.338-0.301,0.539c-0.09,0.166-0.211,0.384-0.365,0.655c-0.175-0.099-0.375-0.188-0.596-0.267  c-0.289-0.102-0.595-0.184-0.909-0.243c-0.311-0.059-0.629-0.105-0.947-0.139c-0.319-0.034-0.609-0.051-0.863-0.051  c-0.949,0-1.839,0.181-2.645,0.538c-0.804,0.355-1.508,0.832-2.092,1.417c-0.585,0.584-1.05,1.277-1.38,2.057  c-0.331,0.781-0.499,1.599-0.499,2.431c0,0.816,0.16,1.62,0.473,2.391c0.313,0.771,0.761,1.463,1.329,2.057  c0.568,0.595,1.25,1.08,2.029,1.443c0.781,0.365,1.66,0.551,2.611,0.551c0.541,0,1.072-0.056,1.579-0.166  c0.503-0.107,0.954-0.231,1.338-0.366c0.396-0.138,0.71-0.271,0.96-0.409c0.099-0.055,0.176-0.1,0.237-0.141l1.146,2.4  c-0.179,0.11-0.408,0.237-0.684,0.378c-0.346,0.179-0.764,0.345-1.24,0.499c-0.48,0.154-1.028,0.286-1.628,0.393  C81.344,40.777,80.693,40.83,80.011,40.83"/>
<path fill="#FFFFFF" d="M80.309,22.857c0.478,0,0.965,0.036,1.451,0.108c0.487,0.072,0.955,0.166,1.391,0.278  c0.427,0.11,0.806,0.238,1.126,0.378c0.177,0.078,0.309,0.151,0.406,0.215c-0.077,0.125-0.14,0.231-0.19,0.323  c-0.082,0.147-0.168,0.299-0.258,0.455c-0.093,0.161-0.194,0.341-0.304,0.543c-0.072,0.133-0.165,0.3-0.277,0.5  c-0.143-0.071-0.299-0.137-0.466-0.195c-0.297-0.105-0.611-0.189-0.935-0.251c-0.315-0.059-0.638-0.106-0.961-0.141  c-0.326-0.034-0.623-0.052-0.882-0.052c-0.975,0-1.889,0.186-2.718,0.553c-0.825,0.364-1.547,0.854-2.147,1.454  c-0.602,0.602-1.079,1.313-1.419,2.114c-0.34,0.803-0.513,1.645-0.513,2.502c0,0.839,0.164,1.667,0.486,2.458  c0.322,0.794,0.782,1.505,1.366,2.113c0.583,0.609,1.284,1.108,2.083,1.481c0.806,0.378,1.71,0.568,2.688,0.568  c0.554,0,1.098-0.058,1.617-0.17c0.51-0.11,0.967-0.235,1.359-0.372c0.405-0.141,0.728-0.278,0.988-0.424  c0.025-0.014,0.05-0.026,0.073-0.039l0.991,2.072c-0.15,0.088-0.327,0.185-0.532,0.289c-0.337,0.172-0.746,0.336-1.214,0.486  c-0.471,0.152-1.011,0.281-1.604,0.387c-0.589,0.104-1.229,0.155-1.901,0.155c-1.369,0-2.607-0.237-3.684-0.703  c-1.076-0.467-1.998-1.104-2.738-1.893c-0.743-0.789-1.319-1.728-1.714-2.786c-0.397-1.063-0.599-2.2-0.599-3.378  c0-1.303,0.241-2.521,0.716-3.622c0.476-1.103,1.131-2.068,1.946-2.867c0.816-0.8,1.78-1.431,2.866-1.875  C77.891,23.082,79.07,22.857,80.309,22.857 M80.309,22.497c-1.292,0-2.506,0.233-3.641,0.696c-1.135,0.464-2.129,1.114-2.982,1.951  c-0.854,0.836-1.528,1.831-2.025,2.982c-0.497,1.152-0.746,2.406-0.746,3.765c0,1.226,0.208,2.394,0.622,3.504  c0.414,1.11,1.01,2.079,1.789,2.907c0.778,0.828,1.731,1.486,2.858,1.976c1.126,0.489,2.402,0.733,3.827,0.733  c0.696,0,1.35-0.055,1.963-0.162c0.613-0.107,1.164-0.24,1.652-0.396c0.488-0.158,0.911-0.328,1.267-0.511  c0.356-0.182,0.634-0.339,0.833-0.472l-1.317-2.758c-0.017,0.049-0.145,0.141-0.385,0.271c-0.24,0.135-0.551,0.266-0.932,0.398  s-0.82,0.252-1.317,0.359s-1.01,0.161-1.541,0.161c-0.928,0-1.772-0.178-2.535-0.534c-0.763-0.355-1.42-0.824-1.975-1.404  c-0.556-0.578-0.986-1.245-1.292-2c-0.307-0.754-0.46-1.528-0.46-2.323c0-0.813,0.162-1.599,0.485-2.361  c0.323-0.762,0.77-1.429,1.342-2c0.571-0.572,1.251-1.032,2.038-1.379c0.787-0.348,1.644-0.521,2.572-0.521  c0.248,0,0.53,0.016,0.845,0.049c0.314,0.033,0.625,0.079,0.932,0.137c0.306,0.058,0.6,0.137,0.882,0.236  c0.282,0.1,0.522,0.215,0.721,0.348c0.199-0.348,0.352-0.621,0.459-0.82c0.108-0.199,0.207-0.376,0.298-0.534  c0.091-0.157,0.178-0.311,0.261-0.459c0.083-0.149,0.199-0.34,0.348-0.572c-0.148-0.166-0.393-0.323-0.733-0.472  c-0.339-0.149-0.733-0.281-1.18-0.397c-0.447-0.116-0.924-0.211-1.429-0.286C81.307,22.534,80.806,22.497,80.309,22.497"/>
<path fill="#FFFFFF" d="M101.903,40.63c-0.726-1.129-1.413-2.198-2.059-3.209c-0.652-1.021-1.297-2.012-1.915-2.947l-0.054-0.08  h-3.06v6.236h-2.671V22.875h4.939c0.97,0,1.867,0.131,2.666,0.39c0.792,0.256,1.474,0.628,2.024,1.107  c0.548,0.476,0.979,1.073,1.282,1.774c0.304,0.704,0.458,1.508,0.458,2.389c0,0.483-0.049,0.973-0.146,1.456  c-0.096,0.48-0.25,0.952-0.459,1.401c-0.208,0.446-0.482,0.862-0.816,1.235c-0.333,0.374-0.737,0.701-1.199,0.971l-0.161,0.094  l1.168,1.86c0.348,0.555,0.7,1.113,1.056,1.678c0.356,0.563,0.725,1.145,1.106,1.74c0.33,0.517,0.685,1.07,1.064,1.66H101.903z   M94.816,31.896h2.615c0.656,0,1.211-0.116,1.649-0.344c0.434-0.226,0.788-0.504,1.051-0.829c0.263-0.325,0.45-0.681,0.555-1.059  c0.104-0.37,0.156-0.717,0.156-1.03c0-0.294-0.048-0.631-0.142-1.001c-0.097-0.378-0.275-0.738-0.528-1.071  c-0.256-0.334-0.606-0.619-1.042-0.846c-0.438-0.228-1.001-0.344-1.673-0.344h-2.64L94.816,31.896L94.816,31.896z"/>
<path fill="#FFFFFF" d="M97.083,23.056c0.95,0,1.829,0.128,2.61,0.381c0.77,0.249,1.43,0.609,1.962,1.072  c0.528,0.458,0.943,1.034,1.235,1.709c0.294,0.681,0.443,1.461,0.443,2.317c0,0.472-0.048,0.95-0.142,1.42  c-0.093,0.466-0.243,0.924-0.446,1.36c-0.2,0.43-0.464,0.831-0.787,1.191c-0.321,0.359-0.71,0.674-1.156,0.936l-0.321,0.188  l0.198,0.315l0.273,0.436l0.795,1.267c0.348,0.556,0.7,1.116,1.057,1.679c0.356,0.564,0.725,1.146,1.106,1.741  c0.278,0.435,0.574,0.896,0.887,1.384h-2.796c-0.706-1.098-1.375-2.141-2.005-3.125c-0.654-1.021-1.298-2.015-1.917-2.949  l-0.107-0.162h-0.194h-0.249h-2.534h-0.361v0.359v5.877h-2.311V23.056H97.083 M94.635,32.077h0.361h2.435  c0.686,0,1.268-0.123,1.731-0.364c0.457-0.237,0.83-0.532,1.108-0.875c0.279-0.344,0.478-0.722,0.589-1.125  c0.108-0.386,0.162-0.748,0.162-1.078c0-0.309-0.05-0.661-0.148-1.046c-0.103-0.401-0.292-0.783-0.56-1.135  c-0.271-0.355-0.642-0.657-1.102-0.896c-0.465-0.241-1.056-0.364-1.756-0.364h-2.46h-0.361v0.36v6.163L94.635,32.077 M97.083,22.695  h-5.119v18.116h3.032v-6.237h2.534h0.249c0.613,0.928,1.251,1.91,1.914,2.945s1.367,2.133,2.112,3.292h3.653  c-0.448-0.694-0.862-1.342-1.243-1.938s-0.75-1.176-1.106-1.738c-0.356-0.563-0.708-1.122-1.056-1.678  c-0.348-0.555-0.704-1.121-1.069-1.703c0.48-0.281,0.895-0.617,1.243-1.006c0.348-0.389,0.629-0.816,0.845-1.28  c0.215-0.463,0.373-0.944,0.472-1.441c0.1-0.497,0.149-0.994,0.149-1.491c0-0.911-0.158-1.731-0.472-2.46  c-0.315-0.729-0.758-1.342-1.33-1.839c-0.571-0.497-1.267-0.878-2.087-1.143C98.984,22.828,98.077,22.695,97.083,22.695   M94.996,31.716v-6.163h2.46c0.646,0,1.176,0.108,1.59,0.323c0.414,0.216,0.741,0.48,0.981,0.795c0.24,0.314,0.406,0.65,0.497,1.006  c0.091,0.356,0.137,0.675,0.137,0.957c0,0.298-0.05,0.625-0.149,0.981c-0.099,0.357-0.273,0.688-0.521,0.994  c-0.248,0.306-0.58,0.568-0.994,0.783c-0.414,0.216-0.936,0.323-1.565,0.323L94.996,31.716L94.996,31.716z"/>
<polygon fill="#FFFFFF" points="111.924,40.63 111.924,22.875 123.59,22.875 123.59,25.274 114.594,25.274 114.594,30.505   122.596,30.505 122.596,32.977 114.594,32.977 114.594,38.16 123.94,38.16 123.94,40.63 "/>
<path fill="#FFFFFF" d="M123.41,23.056v2.038h-8.635h-0.36v0.36v4.87v0.36h0.36h7.642v2.113h-7.642h-0.36v0.36v4.821v0.359h0.36  h8.983v2.111h-11.654V23.056H123.41z M123.771,22.695h-12.026v18.116h12.375v-2.832h-9.344v-4.821h8.002v-2.834h-8.002v-4.87h8.995  V22.695z"/>
<path fill="#FFFFFF" d="M131.282,40.63V22.875h4.518c1.787,0,3.321,0.275,4.562,0.817c1.237,0.543,2.259,1.251,3.033,2.106  c0.772,0.854,1.342,1.84,1.688,2.928c0.348,1.096,0.524,2.202,0.524,3.288c0,1.326-0.241,2.534-0.718,3.592s-1.127,1.97-1.934,2.712  c-0.808,0.743-1.761,1.32-2.835,1.717c-1.077,0.396-2.229,0.598-3.43,0.598h-5.409V40.63z M133.979,38.109h2.242  c0.959,0,1.856-0.137,2.666-0.406c0.813-0.271,1.529-0.681,2.127-1.218c0.597-0.536,1.066-1.202,1.397-1.977  c0.332-0.772,0.5-1.679,0.5-2.693c0-1.149-0.202-2.141-0.603-2.95c-0.4-0.807-0.913-1.47-1.526-1.973  c-0.612-0.501-1.302-0.872-2.049-1.102c-0.743-0.228-1.464-0.343-2.142-0.343h-2.614L133.979,38.109L133.979,38.109z"/>
<path fill="#FFFFFF" d="M135.799,23.056c1.763,0,3.272,0.27,4.488,0.802c1.215,0.532,2.215,1.226,2.973,2.061  c0.756,0.835,1.312,1.798,1.649,2.862c0.345,1.078,0.519,2.166,0.519,3.233c0,1.3-0.236,2.483-0.701,3.517  c-0.467,1.035-1.104,1.93-1.893,2.653c-0.789,0.728-1.724,1.292-2.774,1.681c-1.058,0.389-2.188,0.586-3.367,0.586h-5.229V23.056  H135.799 M133.797,38.289h0.36h2.063c0.979,0,1.896-0.14,2.723-0.416c0.839-0.277,1.575-0.699,2.189-1.254  c0.617-0.555,1.104-1.24,1.444-2.039c0.341-0.795,0.515-1.726,0.515-2.764c0-1.177-0.209-2.196-0.621-3.03  c-0.411-0.83-0.94-1.513-1.573-2.033c-0.63-0.516-1.341-0.897-2.11-1.134c-0.76-0.233-1.498-0.351-2.193-0.351h-2.436h-0.359v0.36  v12.3v0.36 M135.799,22.696h-4.697v18.115h5.591c1.228,0,2.39-0.203,3.492-0.608c1.102-0.406,2.065-0.99,2.896-1.752  c0.828-0.762,1.486-1.686,1.975-2.771c0.49-1.084,0.734-2.306,0.734-3.665c0-1.11-0.18-2.224-0.535-3.343  c-0.355-1.118-0.933-2.116-1.728-2.994s-1.826-1.594-3.094-2.149C139.165,22.974,137.62,22.696,135.799,22.696 M134.158,37.928  v-12.3h2.437c0.662,0,1.357,0.112,2.088,0.335c0.729,0.224,1.391,0.58,1.986,1.069c0.596,0.489,1.09,1.126,1.479,1.913  c0.39,0.787,0.584,1.744,0.584,2.87c0,0.994-0.161,1.868-0.483,2.622c-0.324,0.755-0.775,1.393-1.354,1.914  c-0.58,0.521-1.269,0.915-2.063,1.18c-0.795,0.266-1.664,0.397-2.609,0.397H134.158z"/>
<polygon fill="#FFFFFF" points="152.976,40.63 152.976,22.875 155.648,22.875 155.648,38.109 164.444,38.109 164.444,40.63 "/>
<path fill="#FFFFFF" d="M155.467,23.056v14.873v0.359h0.359h8.438v2.162h-11.108V23.056H155.467z M155.827,22.695h-3.031v18.116  h11.828v-2.883h-8.797V22.695z"/>
<rect x="171.24" y="22.875" fill="#FFFFFF" width="2.697" height="17.755"/>
<path fill="#FFFFFF" d="M173.756,40.451h-2.336V23.056h2.336V40.451z M174.117,22.695h-3.057v18.116h3.057V22.695z"/>
<path fill="#FFFFFF" d="M198.09,41.182c-0.125-0.132-0.278-0.289-0.463-0.474c-0.397-0.397-0.889-0.875-1.471-1.433  c-0.578-0.555-1.221-1.168-1.926-1.839s-1.42-1.352-2.15-2.038c-0.729-0.688-1.438-1.362-2.135-2.025  c-0.697-0.662-1.33-1.27-1.9-1.825c-0.569-0.554-1.051-1.026-1.438-1.415c-0.383-0.382-0.633-0.648-0.742-0.791  c0.002-0.003-0.03-0.055-0.203-0.265c-0.112-0.137-0.211-0.263-0.29-0.375l-0.39-0.542l0.137,1.459v11.01h-2.672V22.346  c0.125,0.13,0.279,0.284,0.465,0.466c0.398,0.39,0.888,0.859,1.47,1.406c0.58,0.547,1.223,1.144,1.928,1.791  c0.703,0.646,1.42,1.304,2.148,1.975c0.728,0.671,1.44,1.333,2.137,1.987c0.695,0.655,1.334,1.252,1.914,1.79  c0.578,0.538,1.065,1,1.449,1.376c0.383,0.375,0.633,0.637,0.741,0.777l0.854,1.261l-0.137-1.537l0.002-10.763h2.672V41.182z"/>
<path fill="#FFFFFF" d="M182.629,22.785c0.049,0.049,0.102,0.101,0.155,0.155c0.397,0.39,0.88,0.85,1.474,1.409  c0.576,0.545,1.227,1.148,1.928,1.793c0.705,0.646,1.422,1.304,2.15,1.975c0.731,0.675,1.45,1.343,2.133,1.985  c0.697,0.656,1.336,1.252,1.916,1.791c0.576,0.536,1.063,0.998,1.447,1.373c0.454,0.447,0.643,0.654,0.719,0.75l0.465,0.687  l0.779,1.147l-0.121-1.382l-0.074-0.83V23.056h2.311v17.681c-0.049-0.049-0.1-0.101-0.154-0.155  c-0.393-0.393-0.889-0.875-1.473-1.435c-0.58-0.556-1.221-1.168-1.926-1.84c-0.705-0.671-1.422-1.351-2.15-2.039  c-0.729-0.687-1.44-1.361-2.137-2.024c-0.691-0.658-1.33-1.272-1.898-1.824c-0.588-0.571-1.059-1.033-1.438-1.413  c-0.441-0.441-0.633-0.654-0.715-0.756c-0.031-0.051-0.088-0.127-0.219-0.287c-0.109-0.131-0.203-0.254-0.283-0.364l-0.777-1.09  l0.125,1.333l0.074,0.778v10.83h-2.311V22.785 M182.267,21.875v18.936h3.03V29.604l-0.074-0.795c0.084,0.116,0.183,0.245,0.3,0.385  c0.114,0.141,0.183,0.228,0.198,0.261c0.115,0.149,0.367,0.419,0.759,0.808c0.389,0.39,0.868,0.862,1.44,1.417  c0.57,0.555,1.205,1.164,1.9,1.826c0.695,0.664,1.408,1.338,2.137,2.027c0.729,0.688,1.445,1.366,2.15,2.036  c0.703,0.673,1.346,1.284,1.926,1.841c0.58,0.555,1.068,1.029,1.465,1.428c0.398,0.397,0.654,0.672,0.771,0.82v-18.96h-3.031v10.959  l0.074,0.845l-0.473-0.695c-0.115-0.149-0.369-0.415-0.758-0.796c-0.392-0.381-0.875-0.841-1.453-1.379  c-0.58-0.538-1.22-1.134-1.914-1.789c-0.695-0.654-1.408-1.317-2.138-1.988s-1.444-1.33-2.149-1.976  c-0.703-0.646-1.346-1.242-1.926-1.789c-0.58-0.547-1.068-1.015-1.466-1.404C182.639,22.294,182.381,22.025,182.267,21.875"/>
<polygon fill="#FFFFFF" points="206.601,40.63 206.601,22.875 218.269,22.875 218.269,25.274 209.273,25.274 209.273,30.505   217.275,30.505 217.275,32.977 209.273,32.977 209.273,38.16 218.617,38.16 218.617,40.63 "/>
<path fill="#FFFFFF" d="M218.09,23.056v2.038h-8.638h-0.358v0.36v4.87v0.36h0.358h7.644v2.113h-7.644h-0.358v0.36v4.821v0.359h0.358  h8.984v2.111h-11.654V23.056H218.09z M218.449,22.695h-12.026v18.116h12.375v-2.832h-9.345v-4.821h8.003v-2.834h-8.003v-4.87h8.996  V22.695L218.449,22.695z"/>
<path fill="#FFFFFF" d="M74.072,13.733c-0.658,0-1.191,0.533-1.191,1.191c0,0.211,0.06,0.407,0.156,0.58L34.022,43.403  c-0.165-0.086-0.35-0.14-0.549-0.14c-0.199,0-0.384,0.054-0.549,0.14l-6.932-7.043c0.092-0.169,0.149-0.36,0.149-0.565  c0-0.657-0.534-1.19-1.192-1.19c-0.658,0-1.191,0.533-1.191,1.19c0,0.658,0.534,1.191,1.191,1.191c0.199,0,0.384-0.054,0.549-0.14  l6.932,7.043c-0.092,0.169-0.149,0.358-0.149,0.565c0,0.657,0.533,1.191,1.191,1.191c0.658,0,1.191-0.534,1.191-1.191  c0-0.205-0.057-0.396-0.148-0.565l39.021-27.906c0.161,0.082,0.341,0.133,0.535,0.133c0.658,0,1.191-0.534,1.191-1.192  C75.262,14.266,74.731,13.733,74.072,13.733"/>
<path fill="#FFFFFF" d="M59.505,53.255c-5.991,7.859-15.448,12.943-26.072,12.943c-18.068,0-32.767-14.699-32.767-32.767  c0-18.068,14.699-32.767,32.767-32.767c10.624,0,20.081,5.083,26.072,12.944l-4.807,3.443C49.783,10.685,42.079,6.577,33.432,6.577  c-14.808,0-26.854,12.047-26.854,26.854c0,14.809,12.046,26.855,26.854,26.855c8.647,0,16.351-4.109,21.266-10.477  c0.14-0.182,0.278-0.365,0.414-0.551l-0.541-0.389l-4.592-3.289l-0.541-0.388c-0.136,0.185-0.275,0.368-0.418,0.548  c-3.643,4.603-9.276,7.561-15.587,7.561c-10.957,0-19.872-8.914-19.872-19.872c0-10.957,8.915-19.872,19.872-19.872  c6.312,0,11.945,2.958,15.587,7.56c0.143,0.18,0.282,0.363,0.418,0.548l0.541-0.387c-0.137-0.186-0.275-0.369-0.417-0.549  c-3.764-4.77-9.595-7.837-16.129-7.837c-11.324,0-20.537,9.213-20.537,20.537c0,11.323,9.213,20.538,20.537,20.538  c6.534,0,12.365-3.067,16.129-7.838l4.596,3.291c-4.794,6.199-12.3,10.197-20.725,10.197c-14.44,0-26.189-11.748-26.189-26.188  c0-14.441,11.748-26.186,26.189-26.186c8.424,0,15.931,3.999,20.725,10.197c0.14,0.182,0.278,0.365,0.414,0.551l0.541-0.388  l4.805-3.442l0.541-0.387c-0.135-0.186-0.272-0.37-0.412-0.553C53.934,5.193,44.279,0,33.433,0C14.998,0,0,14.998,0,33.433  c0,18.436,14.998,33.432,33.433,33.432c10.846,0,20.501-5.193,26.613-13.222c0.139-0.183,0.276-0.367,0.412-0.554l-0.541-0.387  C59.781,52.888,59.644,53.074,59.505,53.255"/>
</svg>